<mxfile host="app.diagrams.net" modified="2022-06-20T07:47:10.681Z" agent="5.0 (X11; Linux x86_64) AppleWebKit/537.36 (KHTML, like Gecko) Chrome/102.0.0.0 Safari/537.36" etag="I6bPozUWiNny7VLSn-8M" version="20.0.1" type="github">
  <diagram id="WkLt7YEkk_ZeOxThB0Bs" name="Page-1">
    <mxGraphModel dx="813" dy="439" grid="1" gridSize="10" guides="1" tooltips="1" connect="1" arrows="1" fold="1" page="1" pageScale="1" pageWidth="827" pageHeight="1169" math="0" shadow="0">
      <root>
        <mxCell id="0" />
        <mxCell id="1" parent="0" />
        <mxCell id="yoBXTclRUUPUT9tsP0_E-5" style="edgeStyle=orthogonalEdgeStyle;rounded=0;orthogonalLoop=1;jettySize=auto;html=1;entryX=0.5;entryY=0;entryDx=0;entryDy=0;fontSize=16;" parent="1" source="yoBXTclRUUPUT9tsP0_E-2" target="yoBXTclRUUPUT9tsP0_E-4" edge="1">
          <mxGeometry relative="1" as="geometry" />
        </mxCell>
        <mxCell id="yoBXTclRUUPUT9tsP0_E-2" value="&lt;font style=&quot;font-size: 16px;&quot;&gt;用户名&lt;br&gt;密码&lt;br&gt;&lt;/font&gt;" style="rounded=0;whiteSpace=wrap;html=1;" parent="1" vertex="1">
          <mxGeometry x="170" y="420" width="120" height="80" as="geometry" />
        </mxCell>
        <mxCell id="yoBXTclRUUPUT9tsP0_E-9" style="edgeStyle=orthogonalEdgeStyle;rounded=0;orthogonalLoop=1;jettySize=auto;html=1;entryX=0.5;entryY=0;entryDx=0;entryDy=0;fontSize=16;" parent="1" source="yoBXTclRUUPUT9tsP0_E-4" target="yoBXTclRUUPUT9tsP0_E-6" edge="1">
          <mxGeometry relative="1" as="geometry" />
        </mxCell>
        <mxCell id="yoBXTclRUUPUT9tsP0_E-4" value="&lt;font style=&quot;font-size: 16px;&quot;&gt;数据库查询&lt;br&gt;&lt;/font&gt;" style="rounded=0;whiteSpace=wrap;html=1;" parent="1" vertex="1">
          <mxGeometry x="170" y="540" width="120" height="80" as="geometry" />
        </mxCell>
        <mxCell id="yoBXTclRUUPUT9tsP0_E-7" style="edgeStyle=orthogonalEdgeStyle;rounded=0;orthogonalLoop=1;jettySize=auto;html=1;entryX=1;entryY=0.5;entryDx=0;entryDy=0;fontSize=16;strokeColor=#FF0000;" parent="1" source="yoBXTclRUUPUT9tsP0_E-6" target="yoBXTclRUUPUT9tsP0_E-2" edge="1">
          <mxGeometry relative="1" as="geometry">
            <Array as="points">
              <mxPoint x="310" y="700" />
              <mxPoint x="310" y="460" />
            </Array>
          </mxGeometry>
        </mxCell>
        <mxCell id="yoBXTclRUUPUT9tsP0_E-8" value="失败" style="edgeLabel;html=1;align=center;verticalAlign=middle;resizable=0;points=[];fontSize=16;fontColor=#FF0000;" parent="yoBXTclRUUPUT9tsP0_E-7" vertex="1" connectable="0">
          <mxGeometry x="0.2149" y="-2" relative="1" as="geometry">
            <mxPoint as="offset" />
          </mxGeometry>
        </mxCell>
        <mxCell id="yoBXTclRUUPUT9tsP0_E-12" value="&lt;font color=&quot;#009900&quot;&gt;成功&lt;/font&gt;" style="edgeStyle=orthogonalEdgeStyle;rounded=0;orthogonalLoop=1;jettySize=auto;html=1;entryX=0.5;entryY=0;entryDx=0;entryDy=0;fontSize=16;strokeColor=#009900;" parent="1" source="yoBXTclRUUPUT9tsP0_E-6" target="yoBXTclRUUPUT9tsP0_E-11" edge="1">
          <mxGeometry relative="1" as="geometry" />
        </mxCell>
        <mxCell id="yoBXTclRUUPUT9tsP0_E-6" value="判断" style="rhombus;whiteSpace=wrap;html=1;fontSize=16;" parent="1" vertex="1">
          <mxGeometry x="170" y="660" width="120" height="80" as="geometry" />
        </mxCell>
        <mxCell id="yoBXTclRUUPUT9tsP0_E-11" value="&lt;font style=&quot;font-size: 16px;&quot;&gt;主页面&lt;br&gt;&lt;/font&gt;" style="rounded=0;whiteSpace=wrap;html=1;" parent="1" vertex="1">
          <mxGeometry x="170" y="800" width="120" height="80" as="geometry" />
        </mxCell>
        <mxCell id="yoBXTclRUUPUT9tsP0_E-15" value="登录流程" style="text;html=1;align=center;verticalAlign=middle;resizable=0;points=[];autosize=1;strokeColor=none;fillColor=none;fontSize=16;fontColor=#009900;" parent="1" vertex="1">
          <mxGeometry x="30" y="590" width="80" height="20" as="geometry" />
        </mxCell>
        <mxCell id="yoBXTclRUUPUT9tsP0_E-16" value="&lt;font style=&quot;font-size: 18px;&quot;&gt;&lt;font color=&quot;#6600cc&quot;&gt;在登录功能基础之上添加功能&lt;br&gt;* 权限判断&lt;/font&gt;&lt;br&gt;&lt;/font&gt;" style="text;html=1;strokeColor=none;fillColor=none;align=left;verticalAlign=middle;whiteSpace=wrap;rounded=0;fontSize=16;fontColor=#009900;" parent="1" vertex="1">
          <mxGeometry x="350" y="600" width="246" height="30" as="geometry" />
        </mxCell>
        <mxCell id="yoBXTclRUUPUT9tsP0_E-18" value="&lt;font color=&quot;#6600cc&quot;&gt;* 原始方式：修改源代码实现&lt;/font&gt;&lt;br&gt;&lt;font color=&quot;#ff0000&quot;&gt;if 管理员&lt;br&gt;else 普通用户&lt;/font&gt;" style="text;html=1;strokeColor=none;fillColor=none;align=left;verticalAlign=middle;whiteSpace=wrap;rounded=0;fontSize=16;fontColor=#009900;" parent="1" vertex="1">
          <mxGeometry x="350" y="690" width="246" height="30" as="geometry" />
        </mxCell>
        <mxCell id="yoBXTclRUUPUT9tsP0_E-19" value="&lt;font color=&quot;#6600cc&quot;&gt;* 不通过修改源代码方式添加新功能&lt;/font&gt;&lt;br&gt;" style="text;html=1;strokeColor=none;fillColor=none;align=left;verticalAlign=middle;whiteSpace=wrap;rounded=0;fontSize=16;fontColor=#009900;" parent="1" vertex="1">
          <mxGeometry x="350" y="770" width="270" height="30" as="geometry" />
        </mxCell>
        <mxCell id="yoBXTclRUUPUT9tsP0_E-22" style="edgeStyle=orthogonalEdgeStyle;rounded=0;orthogonalLoop=1;jettySize=auto;html=1;fontSize=16;fontColor=#FF0000;strokeColor=#009900;" parent="1" source="yoBXTclRUUPUT9tsP0_E-20" edge="1">
          <mxGeometry relative="1" as="geometry">
            <mxPoint x="250" y="770" as="targetPoint" />
            <Array as="points">
              <mxPoint x="320" y="845" />
            </Array>
          </mxGeometry>
        </mxCell>
        <mxCell id="yoBXTclRUUPUT9tsP0_E-23" value="&lt;font color=&quot;#6666ff&quot;&gt;插入&lt;/font&gt;" style="edgeLabel;html=1;align=center;verticalAlign=middle;resizable=0;points=[];fontSize=16;fontColor=#FF0000;" parent="yoBXTclRUUPUT9tsP0_E-22" vertex="1" connectable="0">
          <mxGeometry x="-0.1035" y="-2" relative="1" as="geometry">
            <mxPoint as="offset" />
          </mxGeometry>
        </mxCell>
        <mxCell id="yoBXTclRUUPUT9tsP0_E-20" value="&lt;font style=&quot;font-size: 16px;&quot;&gt;权限判断模块&lt;/font&gt;" style="rounded=0;whiteSpace=wrap;html=1;fontSize=18;fillColor=#dae8fc;strokeColor=#6c8ebf;" parent="1" vertex="1">
          <mxGeometry x="350" y="820" width="130" height="50" as="geometry" />
        </mxCell>
        <mxCell id="yoBXTclRUUPUT9tsP0_E-24" value="面向切面" style="text;html=1;strokeColor=none;fillColor=none;align=left;verticalAlign=middle;whiteSpace=wrap;rounded=0;fontSize=16;fontColor=#6666FF;" parent="1" vertex="1">
          <mxGeometry x="40" y="690" width="80" height="30" as="geometry" />
        </mxCell>
      </root>
    </mxGraphModel>
  </diagram>
</mxfile>
